<svg xmlns="http://www.w3.org/2000/svg" width="1440" height="960" viewBox="0 0 1440 960" role="img" aria-labelledby="title desc">
<title id="title">Proposed Novakai Canvas workspace</title><desc id="desc">Library breadcrumb and saved status above a section navigator, mixed ER and authoring flow canvas, and inspector distinguishing shared content from this appearance. A target UI illustration, not a running implementation.</desc>
<style>text{font-family:Arial,sans-serif;fill:#17212b;font-size:14px}.muted{fill:#526170}.small{font-size:12px}.mono{font-family:monospace;font-size:12px}.title{font-weight:600}.wire{stroke:#526170;stroke-width:2;fill:none}</style>
<defs><marker id="arrow" markerWidth="8" markerHeight="8" refX="7" refY="4" orient="auto"><path d="M1 1L7 4L1 7" fill="none" stroke="#526170" stroke-width="1.5"/></marker></defs>
<rect x="0" y="0" width="1440" height="960" fill="#f4f6f8" rx="0"/>
<rect x="0" y="0" width="1440" height="56" fill="#ffffff" rx="0"/>
<rect x="0" y="56" width="248" height="876" fill="#ffffff" rx="0"/>
<rect x="1120" y="56" width="320" height="876" fill="#ffffff" rx="0"/>
<rect x="0" y="932" width="1440" height="28" fill="#ffffff" rx="0"/>
<path d="M0 56H1440" stroke="#bbc5d0" fill="none"/>
<path d="M248 56V932" stroke="#bbc5d0" fill="none"/>
<path d="M1120 56V932" stroke="#bbc5d0" fill="none"/>
<path d="M0 932H1440" stroke="#bbc5d0" fill="none"/>
<text x="20" y="34" class="muted">Library /</text>
<text x="85" y="34" class="title" style="font-size:18px">Canvas architecture</text>
<text x="378" y="34" class="muted" style="font-size:12px">Saved · revision 18</text>
<rect x="955" y="10" width="108" height="36" fill="#ffffff" rx="6" stroke="#bbc5d0"/>
<text x="967" y="33" class="">Search  ⌘K</text>
<rect x="1075" y="10" width="86" height="36" fill="#ffffff" rx="6" stroke="#bbc5d0"/>
<text x="1087" y="33" class="">History</text>
<rect x="1173" y="10" width="100" height="36" fill="#ffffff" rx="6" stroke="#bbc5d0"/>
<text x="1185" y="33" class="">Settings</text>
<rect x="1285" y="10" width="126" height="36" fill="#ffffff" rx="6" stroke="#bbc5d0"/>
<text x="1297" y="33" class="">Export</text>
<text x="20" y="90" class="muted small">SECTIONS</text>
<rect x="178" y="68" width="48" height="36" fill="#ffffff" rx="6" stroke="#bbc5d0"/>
<text x="190" y="91" class="">+</text>
<text x="26" y="130" class="muted small">01</text>
<text x="56" y="130" class="">Overview</text>
<text x="26" y="174" class="muted small">02</text>
<text x="56" y="174" class="">Data model</text>
<rect x="12" y="192" width="224" height="38" fill="#f4f6f8" rx="6"/>
<rect x="12" y="192" width="3" height="38" fill="#355ccd" rx="1"/>
<text x="26" y="218" class="muted small">03</text>
<text x="56" y="218" class="title">Authoring flow</text>
<text x="20" y="290" class="muted small">OBJECTS</text>
<rect x="16" y="308" width="216" height="36" fill="#ffffff" rx="6" stroke="#bbc5d0"/>
<text x="28" y="331" class="muted">Find an object…</text>
<text x="30" y="384" class="">›  Authoring</text>
<text x="30" y="422" class="">›  Collection</text>
<text x="30" y="460" class="">›  Section</text>
<text x="30" y="498" class="">›  Persistence</text>
<text x="20" y="562" class="muted">Unplaced (2)</text>
<text x="20" y="897" class="muted small">Drag blank canvas to pan</text>
<rect x="272" y="72" width="544" height="52" fill="#ffffff" rx="10" stroke="#bbc5d0"/>
<rect x="280" y="80" width="88" height="36" fill="#355ccd" rx="6" stroke="#355ccd"/>
<text x="292" y="103" style="fill:white">Select</text>
<rect x="376" y="80" width="76" height="36" fill="#ffffff" rx="6" stroke="#bbc5d0"/>
<text x="388" y="103" class="">Hand</text>
<rect x="460" y="80" width="84" height="36" fill="#ffffff" rx="6" stroke="#bbc5d0"/>
<text x="472" y="103" class="">Insert</text>
<rect x="552" y="80" width="100" height="36" fill="#ffffff" rx="6" stroke="#bbc5d0"/>
<text x="564" y="103" class="">Connect</text>
<rect x="660" y="80" width="66" height="36" fill="#ffffff" rx="6" stroke="#bbc5d0"/>
<text x="672" y="103" class="">Undo</text>
<rect x="734" y="80" width="74" height="36" fill="#ffffff" rx="6" stroke="#bbc5d0"/>
<text x="746" y="103" class="">Redo</text>
<rect x="280" y="150" width="808" height="302" fill="#ffffff" rx="12" stroke="#bbc5d0"/>
<text x="300" y="178" class="muted small">DATA MODEL</text>
<text x="300" y="201" class="title" style="font-size:18px">Collections contain sections</text>
<rect x="308" y="224" width="282" height="192" fill="#ffffff" rx="6" stroke="#526170"/>
<rect x="309" y="225" width="280" height="39" fill="#f4f6f8" rx="5"/>
<text x="322" y="250" class="title" style="font-size:16px">Collection</text>
<text x="320" y="292" class="mono">PK</text>
<text x="353" y="292" class="mono">id</text>
<text x="471" y="292" class="mono muted">CollectionId</text>
<text x="320" y="332" class="mono"></text>
<text x="353" y="332" class="mono">title</text>
<text x="471" y="332" class="mono muted">Text</text>
<text x="320" y="372" class="mono"></text>
<text x="353" y="372" class="mono">theme</text>
<text x="471" y="372" class="mono muted">ThemePin</text>
<rect x="774" y="224" width="282" height="192" fill="#ffffff" rx="6" stroke="#526170"/>
<rect x="775" y="225" width="280" height="39" fill="#f4f6f8" rx="5"/>
<text x="788" y="250" class="title" style="font-size:16px">Section</text>
<text x="786" y="292" class="mono">PK</text>
<text x="819" y="292" class="mono">id</text>
<text x="937" y="292" class="mono muted">SectionId</text>
<text x="786" y="332" class="mono">FK</text>
<text x="819" y="332" class="mono">collectionId</text>
<text x="937" y="332" class="mono muted">CollectionId</text>
<text x="786" y="372" class="mono"></text>
<text x="819" y="372" class="mono">mode</text>
<text x="937" y="372" class="mono muted">DiagramMode</text>
<path d="M590 287H685V327H774" class="wire"/>
<path d="M608 279L608 295" class="wire"/>
<path d="M617 279L617 295" class="wire"/>
<circle cx="744" cy="327" r="5" fill="white" stroke="#526170" stroke-width="2"/>
<path d="M754 327L774 316" class="wire"/>
<path d="M754 327L774 338" class="wire"/>
<rect x="615" y="256" width="126" height="24" fill="#ffffff" rx="0"/>
<text x="626" y="273" class="small">contains</text>
<text x="616" y="370" class="muted small">1 → 0..many</text>
<rect x="280" y="476" width="808" height="368" fill="#ffffff" rx="12" stroke="#bbc5d0"/>
<text x="300" y="504" class="muted small">AUTHORING FLOW</text>
<text x="300" y="530" class="title" style="font-size:18px">Two authors. One validated write path.</text>
<rect x="306" y="577" width="158" height="76" fill="#ffffff" rx="8" stroke="#526170"/>
<text x="320" y="606" class="title" style="font-size:16px">Human</text>
<text x="320" y="631" class="muted small">UI edit</text>
<rect x="306" y="701" width="158" height="76" fill="#ffffff" rx="8" stroke="#526170"/>
<text x="320" y="730" class="title" style="font-size:16px">Agent</text>
<text x="320" y="755" class="muted small">DSL intent</text>
<rect x="548" y="624" width="200" height="108" fill="#ffffff" rx="8" stroke="#355ccd"/>
<rect x="544" y="620" width="208" height="116" fill="none" rx="10" stroke="#355ccd"/>
<text x="562" y="653" class="title" style="font-size:16px">Authoring</text>
<text x="562" y="678" class="muted small">Validate · check revision</text>
<rect x="856" y="624" width="206" height="108" fill="#ffffff" rx="8" stroke="#526170"/>
<text x="870" y="653" class="title" style="font-size:16px">Persistence</text>
<text x="870" y="678" class="muted small">Atomic commit + receipt</text>
<path d="M464 615H505V660H548" class="wire" marker-end="url(#arrow)"/>
<path d="M464 739H505V697H548" class="wire" marker-end="url(#arrow)"/>
<path d="M748 678H856" class="wire" marker-end="url(#arrow)"/>
<rect x="482" y="581" width="66" height="21" fill="#ffffff" rx="0"/>
<text x="487" y="597" class="small">edit</text>
<rect x="476" y="763" width="70" height="21" fill="#ffffff" rx="0"/>
<text x="481" y="779" class="small">apply</text>
<rect x="766" y="644" width="76" height="22" fill="#ffffff" rx="0"/>
<text x="771" y="660" class="small">commit</text>
<text x="548" y="798" class="muted small">Preview → validate → commit → refresh</text>
<rect x="1384" y="68" width="36" height="36" fill="#ffffff" rx="6" stroke="#bbc5d0"/>
<text x="1396" y="91" class="">×</text>
<text x="1140" y="94" class="muted small">INSPECTOR</text>
<text x="1140" y="141" class="title" style="font-size:18px">Shared content</text>
<text x="1140" y="166" class="muted small">Authoring · used in 3 sections</text>
<text x="1140" y="208" class="title">Label</text>
<rect x="1140" y="220" width="280" height="40" fill="#ffffff" rx="6" stroke="#526170"/>
<text x="1152" y="246" class="">Authoring</text>
<text x="1140" y="291" class="title">Description</text>
<rect x="1140" y="304" width="280" height="94" fill="#ffffff" rx="6" stroke="#526170"/>
<text x="1152" y="328" class="">Validates and commits edits</text>
<text x="1152" y="350" class="">from humans and agents.</text>
<text x="1152" y="378" class="muted small">Changes apply in all 3 sections.</text>
<rect x="1140" y="416" width="138" height="36" fill="#355ccd" rx="6" stroke="#355ccd"/>
<text x="1152" y="439" style="fill:white">Apply changes</text>
<path d="M1140 486L1420 486" class="wire"/>
<text x="1140" y="524" class="title" style="font-size:18px">This appearance</text>
<text x="1140" y="550" class="muted small">Authoring flow</text>
<text x="1140" y="595" class="title">Size</text>
<rect x="1270" y="571" width="150" height="36" fill="#ffffff" rx="6" stroke="#bbc5d0"/>
<text x="1282" y="594" class="">Medium  ▾</text>
<text x="1140" y="643" class="title">Position lock</text>
<rect x="1270" y="619" width="150" height="36" fill="#ffffff" rx="6" stroke="#bbc5d0"/>
<text x="1282" y="642" class="">Unlocked  ▾</text>
<text x="1140" y="691" class="title">Emphasis</text>
<rect x="1270" y="667" width="150" height="36" fill="#ffffff" rx="6" stroke="#bbc5d0"/>
<text x="1282" y="690" class="">Primary  ▾</text>
<rect x="1140" y="728" width="280" height="36" fill="#ffffff" rx="6" stroke="#bbc5d0"/>
<text x="1152" y="751" class="">Locate other appearances</text>
<text x="1140" y="821" class="muted small">Selecting does not move the camera.</text>
<text x="1140" y="844" class="muted small">Only Locate / Fit navigates.</text>
<rect x="798" y="876" width="290" height="44" fill="#ffffff" rx="8" stroke="#bbc5d0"/>
<text x="814" y="904" class="">−     100%     +      Fit     Minimap</text>
<text x="18" y="951" class="small">Ready</text>
<text x="268" y="951" class="muted small">3 sections · 24 objects · 28 wires</text>
<text x="1118" y="951" class="muted small">PROPOSED UI · not an app screenshot</text>
</svg>